# xmcd CD database file
#
# Track frame offsets:
#	180
#	19023
#	45171
#	65208
#	86067
#	104706
#	116486
#	138513
#	160026
#	198480
#	219499
#	244155
#
# Disc length: 3432 seconds
#
# Revision: 0
# Processed by: cddbd v1.5.2PL0 Copyright (c) Steve Scherf et al.
# Submitted via: CDex 1.51
#
DISCID=a90d660c
DTITLE=Mannish Boys - Blues de France
DYEAR=1900
DGENRE=Blues
TTITLE0=Bonne Direction
TTITLE1=Le Bayou
TTITLE2=Pas de Chance Blues
TTITLE3=Otis
TTITLE4=Blues de France
TTITLE5=Just a Working Man
TTITLE6=Le Lion
TTITLE7=3 Jours
TTITLE8=Sally
TTITLE9=Facile/Difficile
TTITLE10=Good Woman
TTITLE11=Cadillac et Chevrolet
EXTD=
EXTT0=
EXTT1=
EXTT2=
EXTT3=
EXTT4=
EXTT5=
EXTT6=
EXTT7=
EXTT8=
EXTT9=
EXTT10=
EXTT11=
PLAYORDER=
